<mxfile host="Electron" agent="Mozilla/5.0 (Windows NT 10.0; Win64; x64) AppleWebKit/537.36 (KHTML, like Gecko) draw.io/25.0.2 Chrome/128.0.6613.186 Electron/32.2.5 Safari/537.36" version="25.0.2">
  <diagram name="Page-1" id="ipN7d2EwkF4DwkNCnfuI">
    <mxGraphModel dx="1221" dy="717" grid="1" gridSize="10" guides="1" tooltips="1" connect="1" arrows="1" fold="1" page="1" pageScale="1" pageWidth="850" pageHeight="1100" math="0" shadow="0">
      <root>
        <mxCell id="0" />
        <mxCell id="1" parent="0" />
        <mxCell id="EM_BkfYYoxww1n7w7TPC-3" style="edgeStyle=orthogonalEdgeStyle;rounded=0;orthogonalLoop=1;jettySize=auto;html=1;entryX=0;entryY=0.5;entryDx=0;entryDy=0;" edge="1" parent="1" source="EM_BkfYYoxww1n7w7TPC-1" target="EM_BkfYYoxww1n7w7TPC-2">
          <mxGeometry relative="1" as="geometry" />
        </mxCell>
        <mxCell id="EM_BkfYYoxww1n7w7TPC-1" value="准备人脸数据集" style="rounded=1;whiteSpace=wrap;html=1;fillColor=#dae8fc;strokeColor=#6c8ebf;" vertex="1" parent="1">
          <mxGeometry x="80" y="200" width="120" height="40" as="geometry" />
        </mxCell>
        <mxCell id="EM_BkfYYoxww1n7w7TPC-11" style="edgeStyle=orthogonalEdgeStyle;rounded=0;orthogonalLoop=1;jettySize=auto;html=1;exitX=1;exitY=0.5;exitDx=0;exitDy=0;" edge="1" parent="1" source="EM_BkfYYoxww1n7w7TPC-2" target="EM_BkfYYoxww1n7w7TPC-9">
          <mxGeometry relative="1" as="geometry" />
        </mxCell>
        <mxCell id="EM_BkfYYoxww1n7w7TPC-2" value="加载人脸&lt;div&gt;标签 &amp;amp; 特征值&lt;/div&gt;" style="rounded=1;whiteSpace=wrap;html=1;fillColor=#ffe6cc;strokeColor=#d79b00;" vertex="1" parent="1">
          <mxGeometry x="280" y="200" width="120" height="40" as="geometry" />
        </mxCell>
        <mxCell id="EM_BkfYYoxww1n7w7TPC-4" value="" style="sketch=0;outlineConnect=0;fontColor=#232F3E;gradientColor=none;fillColor=#8C4FFF;strokeColor=none;dashed=0;verticalLabelPosition=bottom;verticalAlign=top;align=center;html=1;fontSize=12;fontStyle=0;aspect=fixed;pointerEvents=1;shape=mxgraph.aws4.datazone_data_projects;" vertex="1" parent="1">
          <mxGeometry x="116.5" y="140" width="47" height="47" as="geometry" />
        </mxCell>
        <mxCell id="EM_BkfYYoxww1n7w7TPC-5" value="" style="points=[];aspect=fixed;html=1;align=center;shadow=0;dashed=0;fillColor=#FF6A00;strokeColor=none;shape=mxgraph.alibaba_cloud.face_recognition;" vertex="1" parent="1">
          <mxGeometry x="316.3" y="140.2" width="47.400000000000006" height="46.800000000000004" as="geometry" />
        </mxCell>
        <mxCell id="EM_BkfYYoxww1n7w7TPC-23" style="edgeStyle=orthogonalEdgeStyle;rounded=0;orthogonalLoop=1;jettySize=auto;html=1;exitX=1;exitY=0.5;exitDx=0;exitDy=0;entryX=1;entryY=0.5;entryDx=0;entryDy=0;" edge="1" parent="1" source="EM_BkfYYoxww1n7w7TPC-6" target="EM_BkfYYoxww1n7w7TPC-14">
          <mxGeometry relative="1" as="geometry">
            <Array as="points">
              <mxPoint x="840" y="220" />
              <mxPoint x="840" y="340" />
            </Array>
          </mxGeometry>
        </mxCell>
        <mxCell id="EM_BkfYYoxww1n7w7TPC-6" value="划分数据集" style="rounded=1;whiteSpace=wrap;html=1;fillColor=#f8cecc;strokeColor=#b85450;" vertex="1" parent="1">
          <mxGeometry x="680" y="200" width="120" height="40" as="geometry" />
        </mxCell>
        <mxCell id="EM_BkfYYoxww1n7w7TPC-8" value="&lt;div style=&quot;background-color: rgb(251, 251, 251); font-family: Consolas, &amp;quot;Courier New&amp;quot;, monospace; font-weight: normal; font-size: 14px; line-height: 19px; white-space: pre;&quot;&gt;&lt;div style=&quot;&quot;&gt;train_test_split()&lt;/div&gt;&lt;/div&gt;" style="text;whiteSpace=wrap;html=1;align=center;" vertex="1" parent="1">
          <mxGeometry x="660" y="160" width="160" height="40" as="geometry" />
        </mxCell>
        <mxCell id="EM_BkfYYoxww1n7w7TPC-13" style="edgeStyle=orthogonalEdgeStyle;rounded=0;orthogonalLoop=1;jettySize=auto;html=1;exitX=1;exitY=0.5;exitDx=0;exitDy=0;" edge="1" parent="1" source="EM_BkfYYoxww1n7w7TPC-9" target="EM_BkfYYoxww1n7w7TPC-6">
          <mxGeometry relative="1" as="geometry" />
        </mxCell>
        <mxCell id="EM_BkfYYoxww1n7w7TPC-9" value="PCA&amp;nbsp;降维" style="rounded=1;whiteSpace=wrap;html=1;fillColor=#d5e8d4;strokeColor=#82b366;" vertex="1" parent="1">
          <mxGeometry x="480" y="200" width="120" height="40" as="geometry" />
        </mxCell>
        <mxCell id="EM_BkfYYoxww1n7w7TPC-10" value="" style="sketch=0;html=1;aspect=fixed;strokeColor=none;shadow=0;fillColor=#3B8DF1;verticalAlign=top;labelPosition=center;verticalLabelPosition=bottom;shape=mxgraph.gcp2.process" vertex="1" parent="1">
          <mxGeometry x="515" y="127.47999999999999" width="50" height="59.52" as="geometry" />
        </mxCell>
        <mxCell id="EM_BkfYYoxww1n7w7TPC-17" style="edgeStyle=orthogonalEdgeStyle;rounded=0;orthogonalLoop=1;jettySize=auto;html=1;exitX=0;exitY=0.5;exitDx=0;exitDy=0;entryX=1;entryY=0.5;entryDx=0;entryDy=0;" edge="1" parent="1" source="EM_BkfYYoxww1n7w7TPC-14" target="EM_BkfYYoxww1n7w7TPC-15">
          <mxGeometry relative="1" as="geometry" />
        </mxCell>
        <mxCell id="EM_BkfYYoxww1n7w7TPC-14" value="交叉验证" style="rounded=1;whiteSpace=wrap;html=1;fillColor=#e1d5e7;strokeColor=#9673a6;" vertex="1" parent="1">
          <mxGeometry x="680" y="320" width="120" height="40" as="geometry" />
        </mxCell>
        <mxCell id="EM_BkfYYoxww1n7w7TPC-20" style="edgeStyle=orthogonalEdgeStyle;rounded=0;orthogonalLoop=1;jettySize=auto;html=1;exitX=0;exitY=0.5;exitDx=0;exitDy=0;" edge="1" parent="1" source="EM_BkfYYoxww1n7w7TPC-15" target="EM_BkfYYoxww1n7w7TPC-18">
          <mxGeometry relative="1" as="geometry" />
        </mxCell>
        <mxCell id="EM_BkfYYoxww1n7w7TPC-15" value="网格搜索" style="rounded=1;whiteSpace=wrap;html=1;fillColor=#f8cecc;strokeColor=#b85450;" vertex="1" parent="1">
          <mxGeometry x="480" y="320" width="120" height="40" as="geometry" />
        </mxCell>
        <mxCell id="EM_BkfYYoxww1n7w7TPC-21" style="edgeStyle=orthogonalEdgeStyle;rounded=0;orthogonalLoop=1;jettySize=auto;html=1;exitX=0;exitY=0.5;exitDx=0;exitDy=0;" edge="1" parent="1" source="EM_BkfYYoxww1n7w7TPC-18" target="EM_BkfYYoxww1n7w7TPC-19">
          <mxGeometry relative="1" as="geometry" />
        </mxCell>
        <mxCell id="EM_BkfYYoxww1n7w7TPC-18" value="模型训练" style="rounded=1;whiteSpace=wrap;html=1;fillColor=#d5e8d4;strokeColor=#82b366;" vertex="1" parent="1">
          <mxGeometry x="280" y="320" width="120" height="40" as="geometry" />
        </mxCell>
        <mxCell id="EM_BkfYYoxww1n7w7TPC-19" value="模型验证" style="rounded=1;whiteSpace=wrap;html=1;fillColor=#dae8fc;strokeColor=#6c8ebf;" vertex="1" parent="1">
          <mxGeometry x="80" y="320" width="120" height="40" as="geometry" />
        </mxCell>
        <mxCell id="EM_BkfYYoxww1n7w7TPC-22" value="确定内核" style="text;html=1;align=center;verticalAlign=middle;whiteSpace=wrap;rounded=0;" vertex="1" parent="1">
          <mxGeometry x="710" y="370" width="60" height="30" as="geometry" />
        </mxCell>
        <mxCell id="EM_BkfYYoxww1n7w7TPC-24" value="确定参数" style="text;html=1;align=center;verticalAlign=middle;whiteSpace=wrap;rounded=0;" vertex="1" parent="1">
          <mxGeometry x="515" y="370" width="60" height="30" as="geometry" />
        </mxCell>
        <mxCell id="EM_BkfYYoxww1n7w7TPC-25" value="" style="sketch=0;pointerEvents=1;shadow=0;dashed=0;html=1;strokeColor=#9673a6;fillColor=#e1d5e7;aspect=fixed;labelPosition=center;verticalLabelPosition=bottom;verticalAlign=top;align=center;outlineConnect=0;shape=mxgraph.vvd.on_demand_self_service;" vertex="1" parent="1">
          <mxGeometry x="715" y="270" width="50" height="42.5" as="geometry" />
        </mxCell>
        <mxCell id="EM_BkfYYoxww1n7w7TPC-26" value="" style="points=[];aspect=fixed;html=1;align=center;shadow=0;dashed=0;fillColor=#FF6A00;strokeColor=none;shape=mxgraph.alibaba_cloud.opensearch;" vertex="1" parent="1">
          <mxGeometry x="521.35" y="265.44" width="47.3" height="47.06" as="geometry" />
        </mxCell>
        <mxCell id="EM_BkfYYoxww1n7w7TPC-27" value="" style="sketch=0;outlineConnect=0;fontColor=#232F3E;gradientColor=none;fillColor=#01A88D;strokeColor=none;dashed=0;verticalLabelPosition=bottom;verticalAlign=top;align=center;html=1;fontSize=12;fontStyle=0;aspect=fixed;pointerEvents=1;shape=mxgraph.aws4.sagemaker_train;" vertex="1" parent="1">
          <mxGeometry x="316.3" y="273.33" width="47" height="39.17" as="geometry" />
        </mxCell>
        <mxCell id="EM_BkfYYoxww1n7w7TPC-29" value="" style="image;aspect=fixed;html=1;points=[];align=center;fontSize=12;image=img/lib/azure2/other/Test_Base.svg;" vertex="1" parent="1">
          <mxGeometry x="106" y="265" width="68" height="48" as="geometry" />
        </mxCell>
      </root>
    </mxGraphModel>
  </diagram>
</mxfile>
